<?xml version="1.0" encoding="UTF-8" standalone="no"?>
<!-- Created with Inkscape (http://www.inkscape.org/) -->

<svg
   width="512"
   height="512"
   viewBox="0 0 512 512"
   version="1.1"
   id="svg1"
   xml:space="preserve"
   inkscape:version="1.4.2 (f4327f4, 2025-05-13)"
   sodipodi:docname="CozyFlameLogoColor.svg"
   xmlns:inkscape="http://www.inkscape.org/namespaces/inkscape"
   xmlns:sodipodi="http://sodipodi.sourceforge.net/DTD/sodipodi-0.dtd"
   xmlns:xlink="http://www.w3.org/1999/xlink"
   xmlns="http://www.w3.org/2000/svg"
   xmlns:svg="http://www.w3.org/2000/svg"><sodipodi:namedview
     id="namedview1"
     pagecolor="#505050"
     bordercolor="#eeeeee"
     borderopacity="1"
     inkscape:showpageshadow="0"
     inkscape:pageopacity="0"
     inkscape:pagecheckerboard="0"
     inkscape:deskcolor="#505050"
     inkscape:document-units="px"
     inkscape:zoom="1.1396484"
     inkscape:cx="187.33848"
     inkscape:cy="189.09341"
     inkscape:window-width="3440"
     inkscape:window-height="1369"
     inkscape:window-x="-8"
     inkscape:window-y="-8"
     inkscape:window-maximized="1"
     inkscape:current-layer="layer1" /><defs
     id="defs1"><linearGradient
       id="linearGradient30"><stop
         style="stop-color:#ee4a00;stop-opacity:1;"
         offset="0.4825466"
         id="stop33" /><stop
         style="stop-color:#ffc617;stop-opacity:1;"
         offset="1"
         id="stop34" /></linearGradient><linearGradient
       id="linearGradient30-1"><stop
         style="stop-color:#eeb100;stop-opacity:1;"
         offset="0"
         id="stop31" /><stop
         style="stop-color:#ffc617;stop-opacity:1;"
         offset="1"
         id="stop32" /></linearGradient><linearGradient
       inkscape:collect="always"
       xlink:href="#linearGradient30"
       id="linearGradient32"
       x1="256.63617"
       y1="6.3665214"
       x2="256.63617"
       y2="509.46118"
       gradientUnits="userSpaceOnUse" /></defs><g
     inkscape:label="Camada 1"
     inkscape:groupmode="layer"
     id="layer1"><path
       id="path1"
       style="fill:url(#linearGradient32);stroke-width:0.358721;fill-opacity:1"
       d="M 267.31566,31.524808 C 214.69292,29.205245 161.15984,43.414627 114.95207,75.260656 4.4451263,151.42112 -28.237107,303.88877 42.39036,413.77771 c 1.459717,2.27116 3.449891,5.44268 4.421944,7.04677 0.972064,1.60411 2.477455,3.34983 3.346821,3.87988 3.081513,1.87876 6.772425,0.44456 7.935206,-3.08367 0.829656,-2.51739 0.633239,-2.97348 -5.688247,-13.25908 C 9.9475496,339.27794 5.0694702,255.40101 39.23922,181.97883 c 7.093322,-15.24175 17.521045,-32.65829 25.629725,-42.80468 1.576727,-1.97296 4.515855,-5.7142 6.5317,-8.31307 4.009055,-5.16856 20.13748,-22.26777 24.194732,-25.65222 1.397264,-1.16555 4.880743,-4.16928 7.741773,-6.675652 81.23501,-71.16491 209.52014,-74.235655 297.86936,-7.127736 100.37297,76.240878 125.51884,219.203008 56.66206,322.142818 -3.35489,5.01549 -3.48916,8.75695 -0.40486,11.18306 2.9465,2.31772 6.93417,0.74238 9.54339,-3.77192 0.70612,-1.22182 2.82024,-4.69857 4.69859,-7.72379 56.27653,-90.63767 46.65424,-210.94027 -23.448,-293.15051 C 401.125,64.811554 334.97348,34.507096 267.31566,31.524808 Z m -8.8079,39.52758 C 122.03878,70.504373 2.5185778,208.57639 59.173951,358.08507 c 2.979115,7.86163 3.643319,8.97817 5.958151,9.99997 2.405102,1.06163 4.952701,0.1563 6.443981,-2.28969 1.473825,-2.41736 1.208375,-4.1391 -1.860094,-12.01527 C 26.720931,243.42002 92.568756,117.91475 208.75978,88.7649 364.2056,49.766867 502.36658,206.21517 443.5636,354.64603 c -3.40755,8.60135 -3.18192,11.73596 0.96941,13.47051 4.82838,2.01742 6.58759,0.0533 11.07284,-12.36615 C 488.89326,263.57945 454.97792,160.62734 373.63122,106.90702 336.25764,82.225974 296.71907,71.205833 258.50776,71.052388 Z m -2.54385,37.777702 C 147.57043,109.18203 56.244575,215.91935 91.504072,334.55835 c 4.06666,13.68321 12.446068,31.6953 16.770098,36.05031 2.81802,2.83818 7.43635,1.42045 8.79665,-2.7013 0.52646,-1.59518 0.36064,-2.03759 -4.03283,-10.80969 -68.435465,-136.6394 70.16527,-284.071454 209.11337,-222.43768 40.25414,17.85571 69.35988,49.71841 84.40377,87.21754 16.91813,42.17097 16.05286,91.4686 -6.73863,135.98937 -4.61379,9.01255 -4.75984,10.26778 -1.50696,13.00492 4.38849,3.69266 7.15724,1.4678 13.49749,-10.84794 43.20731,-83.92874 6.62723,-191.379 -79.41953,-233.2811 -25.48589,-12.41084 -51.40971,-17.99392 -76.42359,-17.91269 z m -13.65269,44.03499 c -3.50405,0.14067 -4.36451,3.45681 -1.95006,9.58162 4.56568,11.58199 4.10249,28.39704 -1.09312,39.6423 -3.06946,6.64344 -5.4842,9.91825 -21.37647,28.99454 -12.41564,14.90311 -18.11963,28.60906 -18.11963,43.53792 0,5.48984 -0.13187,5.52986 -3.08816,0.92892 -3.23568,-5.03578 -4.15852,-8.05051 -4.41744,-14.41067 -0.7404,-18.18947 -11.05493,-12.50673 -20.39806,11.23928 -8.76488,22.27633 -7.4851,47.41467 3.28833,64.57477 1.4374,2.28951 2.61359,4.22679 2.61359,4.30498 0,0.0783 -1.88175,-0.38418 -4.18354,-1.03014 -23.661,-6.64004 -46.14491,35.63622 -31.88926,59.96164 0.65692,1.12094 1.1315,2.09628 1.08861,2.22897 l -0.002,0.002 v 0.002 l -0.002,0.002 -0.002,0.002 -0.002,0.002 c -0.3392,0.25027 -11.82836,4.09876 -15.84792,5.30813 -14.18435,4.26772 -22.6599,12.76563 -25.75569,25.82541 -1.705842,7.1962 -0.6053,6.45513 -9.60411,6.46872 -30.678754,0.0461 -40.021138,37.54787 -10.915412,43.81681 4.663451,1.00445 349.638642,0.89019 353.035682,-0.11695 27.77756,-8.23539 19.13603,-42.87746 -10.87491,-43.59415 -8.69086,-0.20754 -8.69164,-0.20683 -9.47816,-3.86864 -3.99911,-18.61883 -9.87778,-23.68232 -38.27028,-32.96214 -2.89368,-0.94577 -5.33001,-1.76729 -5.41384,-1.82636 v -0.002 l -0.002,-0.002 -0.002,-0.002 v -0.002 -0.002 -0.002 c -0.0134,-0.14677 0.63769,-1.19786 1.50246,-2.4134 18.3423,-25.78202 -8.02189,-74.69928 -35.20909,-65.32824 -2.28802,0.78864 -4.16105,1.33763 -4.16105,1.21907 0,-0.11856 0.67424,-1.19587 1.49799,-2.39316 18.50811,-26.90061 14.62132,-69.36337 -9.21726,-100.67905 -5.36345,-7.04571 -11.26851,-6.06803 -11.03012,1.82636 0.2978,9.86053 -4.51044,20.71705 -11.01437,24.86724 -2.52767,1.61293 -2.66798,1.48637 -1.99505,-1.77912 7.97941,-38.7208 -11.34232,-78.67143 -48.6841,-100.66781 -3.86961,-2.2794 -6.92364,-3.339 -9.02607,-3.2546 z m 36.98148,43.51767 h 0.002 0.002 0.002 0.002 c 0.26742,-0.0413 1.41126,1.89105 3.44354,5.80972 4.98778,9.61753 4.4638,28.99355 -1.22132,45.15509 -6.90464,19.62845 -7.29349,24.65549 -3.07242,39.85821 2.63432,9.48784 3.28299,17.05558 1.98605,23.16685 -0.47576,2.24176 -0.75835,2.68442 -2.04903,3.20737 -2.00602,0.81274 -2.0746,0.64254 -1.26855,-3.07467 1.43536,-6.61948 0.98876,-13.16461 -1.55871,-22.82046 -3.9499,-14.97157 -3.58093,-20.74082 2.38191,-37.0692 7.12604,-19.51358 7.78531,-34.7169 2.20198,-50.89283 -0.70988,-2.05666 -1.00205,-3.16849 -0.87269,-3.32432 0.002,-0.002 0.009,-0.007 0.0115,-0.009 4.8e-4,-2.3e-4 0.007,-0.005 0.009,-0.007 z m -17.03775,11.45298 c 1.51967,0.0428 2.98149,1.22943 4.45568,3.52676 7.37579,11.49416 4.16135,30.38987 -5.95591,35.01116 -11.38947,5.2024 -15.44461,-11.84803 -6.91406,-29.07101 3.18712,-6.43471 5.88149,-9.53836 8.41429,-9.46691 z m -0.37562,2.92621 c -0.6588,1.5e-4 -1.3149,0.32351 -1.94782,0.99415 -6.97258,7.38815 -10.40558,26.51066 -5.61852,31.29774 6.48198,6.48196 16.33547,-8.6826 13.75391,-21.1673 -1.45104,-7.01737 -3.83478,-11.12513 -6.18757,-11.12459 z m 29.26219,21.27301 c 0.31221,-0.0193 0.49371,1.70202 0.35987,4.76832 -0.21253,4.86939 -0.27435,5.09403 -3.20962,11.63291 -7.86077,17.51146 -5.37833,28.05229 8.78541,37.28736 17.93126,11.69154 21.14976,28.94258 10.27214,55.07187 -1.10554,2.65559 -1.85104,3.77829 -2.8565,4.29823 -1.6654,0.86123 -2.55049,0.90329 -2.21996,0.10572 12.84487,-30.99548 11.24556,-45.26264 -6.35852,-56.74078 -13.1332,-8.56309 -17.18154,-17.37349 -13.10388,-28.51546 0.67391,-1.84143 1.71311,-5.17737 2.30994,-7.41339 0.5968,-2.23601 1.95694,-6.75668 3.02068,-10.04495 1.06375,-3.28827 2.082,-6.89056 2.26271,-8.00719 0.26741,-1.65239 0.53094,-2.42985 0.73773,-2.44264 z m -76.26839,22.84745 h 0.002 0.002 c 9.2e-4,5e-5 0.006,-1.1e-4 0.007,0 h 0.002 l 0.002,0.002 h 0.002 l 0.002,0.002 c 0.0994,0.0631 0.11519,0.70282 0.1372,1.88708 0.0663,3.56743 1.32634,11.79567 2.70131,17.64054 3.36466,14.3029 2.60875,20.43463 -4.25551,34.55459 -6.7582,13.90177 -7.26118,37.97813 -0.89743,42.92613 1.34677,1.04715 2.05576,0.75449 1.52946,-0.62978 -0.83902,-2.20678 -0.46736,-2.40973 0.50158,-0.27441 0.52035,1.14674 0.94692,2.16899 0.94692,2.27171 0,0.71641 -5.86914,-1.49429 -6.50247,-2.44939 -5.65206,-8.52365 -4.95261,-27.44568 1.5632,-42.30086 5.6225,-12.81856 5.55665,-12.60375 5.77597,-18.91584 0.17479,-5.03037 0.0145,-6.65355 -1.30005,-13.15111 -2.01381,-9.95379 -2.32134,-15.56628 -1.06162,-19.37243 0.47477,-1.43454 0.71647,-2.15286 0.84121,-2.19073 z m 41.61484,17.16147 c 0.35528,-0.002 0.75887,0.71847 1.38552,2.08726 3.01517,6.58602 4.02735,16.69358 2.67656,26.70709 -2.9848,22.12629 16.33897,32.45067 29.83798,15.94239 2.90373,-3.55102 2.872,-3.542 3.57625,-0.9964 1.91681,6.92864 0.97029,19.7939 -2.08501,28.34228 -2.29784,6.42911 -2.34189,6.47637 -7.26269,8.06789 -2.33863,0.75642 -7.90986,2.72385 -12.3819,4.37247 -4.47205,1.64863 -11.44337,4.11594 -15.4903,5.48133 -4.04692,1.36536 -7.59887,2.55807 -7.89246,2.65181 -1.87752,0.59967 -18.50268,-6.04152 -20.22488,-8.07915 -11.50414,-13.6111 -8.34798,-32.68156 8.54024,-51.60134 9.00897,-10.09271 15.61592,-21.02246 17.92844,-29.66031 0.60325,-2.25331 0.96348,-3.31191 1.39225,-3.31532 z m -71.8352,3.529 h 0.002 c 10e-4,-8e-5 0.007,4e-5 0.009,0 h 0.002 c 0.13303,0.038 0.63537,0.83392 1.28429,2.06702 0.83064,1.57838 2.12053,3.64471 2.86549,4.59064 1.1832,1.50239 1.29759,1.92454 0.91543,3.34682 -3.44683,12.82763 -2.26493,22.29555 4.67611,37.50104 2.64294,5.78983 5.13042,13.12325 7.03777,20.7422 1.42832,5.70535 1.47529,5.43602 -0.75798,4.5389 -1.65346,-0.6642 -1.74721,-0.83411 -2.54386,-4.61538 -1.3442,-6.38018 -2.58567,-10.13389 -6.35626,-19.23072 -6.91306,-16.6783 -7.55773,-20.6909 -5.18668,-32.28513 0.71783,-3.51013 1.4743,-6.82815 1.68017,-7.37516 0.25107,-0.66707 0.0523,-1.625 -0.60504,-2.90822 -2.01864,-3.94113 -5.54017,22.22947 -4.22852,31.42593 0.7079,4.96327 3.71046,18.84862 5.09897,23.57844 1.12326,3.82636 1.12197,3.82582 -0.0652,2.39092 -6.22391,-7.51742 -8.97491,-26.5048 -6.14484,-42.39982 2.65568,-14.91557 3.07642,-17.7544 2.81376,-18.93384 -0.16208,-0.72771 -0.38723,-1.75232 -0.50158,-2.27845 -0.0152,-0.0699 -0.0136,-0.11693 -0.009,-0.13944 v -0.002 -0.002 h 0.002 v -0.002 l 0.002,-0.002 0.002,-0.002 0.002,-0.002 h 0.002 z m 160.01991,67.53472 c 1.38336,0.0273 2.20292,0.43185 3.2681,0.97841 4.41368,2.26478 4.41165,2.1066 -0.0135,5.1102 -10.18464,6.91226 -17.01036,9.59651 -34.56133,13.58971 -11.18336,2.54445 -20.35593,6.16945 -28.71114,11.34951 -3.85318,2.38887 -6.37547,4.22728 -17.87446,13.0229 -4.51649,3.45468 -10.16192,6.72048 -14.53662,8.40754 -7.47371,2.88217 -10.78319,3.33689 -34.5366,4.74808 -20.15498,1.19741 -35.89314,5.61409 -56.09749,15.74221 -3.20439,1.60631 -5.88151,2.90832 -5.95141,2.89474 -0.0698,-0.0136 -1.09686,-0.79069 -2.2807,-1.72739 -1.18377,-0.93672 -3.29545,-2.35196 -4.69409,-3.14665 -3.04877,-1.73227 -3.06718,-1.71264 3.2591,-3.84164 2.76213,-0.92956 11.04856,-3.8393 18.41427,-6.46648 25.11339,-8.95738 45.89864,-16.30461 60.98277,-21.55641 8.28645,-2.88508 18.60797,-6.55535 22.93518,-8.15563 9.50055,-3.51347 9.20734,-3.49675 6.64416,-0.40485 -7.63496,9.20978 -15.73295,13.66372 -28.52221,15.68822 -3.79562,0.60084 -5.27841,1.80748 -4.65136,3.78317 0.47462,1.49539 2.36292,1.68557 7.3819,0.74448 13.7384,-2.57597 20.73551,-7.05821 32.11644,-20.57575 4.70665,-5.59023 4.74568,-5.60846 27.82945,-13.9181 36.21666,-13.0372 45.44944,-16.348 49.59954,-16.26627 z m -176.05001,7.06926 c 6.49946,-0.12137 13.56252,3.74093 17.32789,9.61087 4.5136,7.0363 11.54255,11.01208 28.29054,16.00311 1.23271,0.36736 1.01858,0.94889 -0.47908,1.30229 -0.72341,0.17072 -4.4357,1.46046 -8.25009,2.86549 -3.8144,1.40505 -7.47324,2.66322 -8.13089,2.79576 -5.1313,1.03412 -46.87349,-12.1315 -46.87349,-14.78404 0,-0.95304 2.01844,-4.80245 3.79441,-7.23794 1.49063,-2.04422 1.49043,-2.0445 4.70759,0.51956 12.56684,10.01579 33.49661,17.27043 28.88883,10.01347 -0.20899,-0.32916 -2.62694,-1.47366 -5.37336,-2.54385 -10.16528,-3.96107 -23.66248,-11.92098 -23.3108,-13.74716 0.29956,-1.55544 5.22819,-4.42064 8.1174,-4.71884 0.42716,-0.0441 0.85775,-0.0706 1.29105,-0.0788 z m 186.74273,0.13271 c 1.42754,-0.055 2.66581,1.49997 5.14845,5.28788 2.45156,3.74046 2.40082,4.22779 -0.63203,5.98064 -13.92345,8.04707 -26.51095,12.96007 -45.3193,17.69227 -24.58779,6.18632 -43.5495,15.82086 -36.20325,18.39403 1.18732,0.41587 2.1513,0.0485 8.36931,-3.19162 9.69722,-5.05297 13.81,-6.53413 27.59553,-9.93476 21.35357,-5.2675 34.70898,-10.52645 48.17804,-18.96981 0.98125,-0.61513 1.87942,-1.11787 1.99504,-1.11787 1.08421,0 2.69221,10.35957 2.30544,14.84927 -0.23094,2.68076 -6.77882,5.04184 -25.20912,9.08681 -22.62045,4.96458 -32.68912,10.31164 -49.98864,26.54739 -11.08354,10.40198 -8.67191,9.16227 -38.50195,19.81552 -8.15492,2.91242 -16.0115,5.73609 -17.45836,6.27755 -1.44682,0.54147 -8.4416,3.03205 -15.54427,5.53305 -7.10267,2.50101 -18.29521,6.55195 -24.87175,9.00358 -6.57653,2.45163 -15.67682,5.77052 -20.22262,7.37291 -9.30592,3.28026 -9.37837,3.29561 -8.94061,1.91632 2.3884,-7.52519 2.25489,-7.30739 5.04948,-8.20736 4.86771,-1.56762 8.33042,-3.36289 15.50379,-8.03192 12.26355,-7.98215 17.67421,-10.23676 30.3733,-12.66529 3.55134,-0.67916 9.25449,-1.76906 12.67429,-2.42015 21.37886,-4.0703 59.54778,-21.67998 59.54778,-27.47407 0,-3.60935 -1.82713,-3.06612 -12.67654,3.77641 -17.36196,10.94988 -31.99671,16.33671 -57.22435,21.06159 -16.46557,3.08385 -21.67006,5.1005 -34.02377,13.1916 -6.0045,3.93265 -15.39447,8.789 -15.94013,8.24335 -0.0902,-0.0902 -0.39436,-2.30353 -0.67701,-4.91902 -0.28272,-2.6155 -0.61211,-5.09386 -0.73324,-5.50606 -0.30183,-1.02721 1.00791,-2.115 7.67879,-6.37425 13.07781,-8.35003 25.15875,-12.62174 41.37418,-14.62885 13.29515,-1.64566 16.04495,-2.07904 21.64188,-3.4188 6.82897,-1.6347 8.32101,-2.46331 7.84749,-4.34996 -0.45796,-1.82464 -1.37,-1.91741 -6.44848,-0.65677 -5.79502,1.43842 -8.82262,1.94359 -20.31035,3.3873 -22.60244,2.84053 -31.39246,5.94371 -48.32198,17.06024 -5.19291,3.40984 -4.51174,3.49145 -6.70714,-0.78497 -1.01011,-1.96762 -2.68911,-4.89875 -3.73144,-6.51145 -1.00976,-1.5623 -1.77951,-2.89238 -1.75438,-3.0252 v -0.002 -0.002 h 0.002 v -0.002 h 0.002 v -0.002 c 12.73179,-9.00985 40.58759,-16.85252 63.75831,-17.95093 26.53278,-1.25779 33.46966,-3.47796 49.95714,-15.98512 17.8546,-13.54425 23.7297,-16.49668 41.39668,-20.80967 13.52521,-3.30186 15.59077,-3.88583 20.58926,-5.8277 5.54533,-2.15433 12.97923,-6.43547 17.36838,-10.00222 1.3012,-1.0574 2.22714,-1.67188 3.08366,-1.7049 z m -164.54755,6.70713 c 1.91298,-0.0494 7.45375,1.6455 19.71656,5.6815 5.26124,1.7316 12.41633,4.04212 15.9019,5.13269 7.62899,2.38698 7.59591,2.25944 1.19657,4.44219 -6.02248,2.05418 -5.23388,2.03499 -9.44667,0.24966 -1.84142,-0.78036 -6.68276,-2.62327 -10.76021,-4.09356 -12.30643,-4.43757 -13.8931,-5.34079 -16.80158,-9.56812 -0.796,-1.15691 -0.95436,-1.8147 0.19343,-1.84436 z m -41.62609,16.29776 c 0.50921,-0.0189 1.39256,0.49338 3.09266,1.34952 7.5527,3.80349 15.33192,6.37575 30.87713,10.20917 2.9016,0.71552 4.90436,1.42705 4.55689,1.61718 -0.34095,0.18649 -5.35522,1.95677 -11.14257,3.9361 -5.78736,1.97934 -12.67524,4.39618 -15.30587,5.37112 -8.54703,3.16765 -8.74896,3.21118 -9.54563,1.9928 -3.41158,-5.2177 -4.82545,-13.67011 -3.57624,-21.36974 0.35336,-2.17806 0.38892,-3.08189 1.04363,-3.10615 z m 215.92396,13.87762 c 0.78952,-0.0318 0.43405,0.78628 -0.5488,2.93522 -2.45659,5.37111 -2.57249,5.44298 -17.48085,10.66348 -9.78863,3.42772 -35.0725,12.50535 -48.73809,17.49885 -4.56942,1.6697 -5.88087,1.98947 -5.04497,1.23032 17.57721,-15.96334 27.64805,-21.41528 47.33683,-25.62524 8.99712,-1.92383 17.04414,-4.08454 21.70711,-5.82994 1.40934,-0.52754 2.29507,-0.85362 2.76877,-0.87269 z m -26.29998,28.385 c 1.85899,0.0234 4.32537,0.94419 10.90191,3.39856 12.41004,4.63142 11.111,3.77018 9.90101,6.56319 -3.56102,8.21982 -3.55067,8.21898 -17.55507,-0.39586 -2.36755,-1.45641 -5.99825,-3.57605 -8.07016,-4.7121 -4.2041,-2.30517 -4.26775,-2.12334 1.37427,-4.06657 1.43489,-0.49419 2.33264,-0.80125 3.44804,-0.78722 z m -206.25463,3.61673 c 4.00646,0.15571 8.14371,1.46483 12.05126,4.13179 18.03568,12.30961 18.27294,41.55608 0.40036,49.21717 -15.91694,6.82279 -35.35233,-9.2251 -35.33506,-29.17447 0.0128,-14.73437 10.86409,-24.64163 22.88344,-24.17449 z m 254.22573,0.47233 c 8.12684,0.33287 15.40107,7.53477 16.55867,21.38997 0.98219,11.75547 -6.75903,26.15702 -16.65539,30.98734 -16.28696,7.94952 -28.81465,-10.95418 -21.5744,-32.55279 4.56592,-13.62077 13.54429,-20.15739 21.67112,-19.82452 z m -63.38942,1.48448 c 2.97806,-0.0438 5.85291,1.72543 13.67518,6.47772 2.62802,1.5966 7.51681,4.35193 10.86367,6.12459 5.31339,2.81422 6.08041,3.36992 6.04137,4.38595 -0.0631,1.64125 -1.19399,9.25742 -1.40575,9.46917 -0.1783,0.1783 -7.96035,-2.99478 -14.67384,-5.98289 -2.52192,-1.12247 -4.9449,-1.78913 -7.65405,-2.10751 -4.20122,-0.49373 -13.74334,-0.0857 -12.08723,0.51732 0.72037,0.26229 0.4016,0.43065 -1.31805,0.69726 -3.51749,0.54532 -2.18871,1.20239 2.41565,1.19433 3.94493,-0.007 4.98398,-0.82093 1.28655,-1.00765 -0.55527,-0.028 -0.85568,-0.0589 -0.91318,-0.10122 l -0.002,-0.002 -0.002,-0.002 -0.002,-0.002 v -0.002 l -0.002,-0.002 v -0.002 -0.002 -0.002 l 0.002,-0.002 0.002,-0.002 0.002,-0.002 c 0.0374,-0.0381 0.22076,-0.0886 0.54206,-0.1507 2.45168,-0.47427 8.42182,1.65007 21.65762,7.71029 3.8144,1.7465 7.72647,3.41363 8.69319,3.70444 1.65595,0.49816 1.77742,0.67115 2.08726,2.97571 0.18088,1.34538 0.8429,4.48625 1.47098,6.97929 0.62807,2.49306 1.14036,4.59086 1.14036,4.66261 v 0.002 0.002 0.002 0.002 0.002 l -0.002,0.002 c -0.0375,0.061 -0.29065,0.0936 -0.59378,0.0697 -1.07839,-0.0846 -82.14783,-27.41112 -82.14783,-27.69001 0,-0.37382 8.8363,-3.35131 9.946,-3.35131 0.49241,0 3.03041,0.86929 5.63877,1.93206 4.12722,1.68163 17.96315,6.2795 23.2973,7.74178 2.81164,0.77075 4.07826,0.0411 2.78451,-1.60369 -1.30947,-1.66471 -6.76274,-4.46261 -10.57802,-5.42734 -1.7099,-0.43235 -5.26186,-1.60782 -7.89248,-2.61357 -2.63061,-1.00575 -5.42762,-2.03478 -6.21681,-2.2852 -1.33765,-0.42447 -1.01838,-0.59356 4.72559,-2.50787 6.98512,-2.32795 9.21486,-2.40584 14.40618,-0.50606 6.14463,2.24863 8.0025,2.59094 14.20375,2.61582 7.78857,0.0313 8.71489,-0.58932 3.42329,-2.28745 -2.06621,-0.66306 -5.90963,-1.9724 -8.54024,-2.91047 -2.63063,-0.93809 -5.62509,-1.7071 -6.65541,-1.7094 -2.67337,-0.006 -2.07838,-0.33469 5.82095,-3.22086 2.95133,-1.07833 4.77411,-1.75734 6.56094,-1.78363 z m -192.30278,5.79846 c -0.43565,-0.0138 -0.86162,-0.007 -1.27756,0.0203 -16.0832,1.04855 -17.32999,31.99302 1.71389,38.22079 9.58694,3.13512 19.169,-4.31763 19.08228,-14.84028 -0.063,-7.64972 -2.29493,-11.80432 -5.31487,-9.89201 -0.69081,0.43742 -0.63167,0.83282 0.61403,4.10704 5.11831,13.45301 -11.00709,23.22395 -19.92573,12.07376 -10.478,-13.09976 -3.56657,-28.10483 11.6194,-25.22487 4.12085,0.7815 2.13848,-2.41127 -2.32792,-3.74943 -1.48147,-0.44386 -2.87659,-0.67374 -4.18352,-0.71525 z m 125.54178,18.23883 c 0.63504,-0.0197 49.88149,16.36614 76.08172,25.31483 6.66232,2.27553 6.84652,2.37537 5.02248,2.67656 -3.04485,0.50281 -160.06428,0.3834 -159.75225,-0.12146 0.15071,-0.24386 1.07745,-0.7038 2.06027,-1.02114 0.98282,-0.31733 6.52256,-2.2948 12.30991,-4.39496 5.78736,-2.10014 18.0555,-6.45791 27.26265,-9.68508 9.20716,-3.22717 21.12954,-7.41408 26.49343,-9.30498 5.36387,-1.89091 10.09833,-3.45065 10.52179,-3.46377 z m -164.988398,5.47906 c 4.554947,0.0435 8.546848,1.38209 9.574878,4.18128 2.84159,7.73727 7.87127,16.908 9.6626,17.61805 0.22122,0.0876 0.40261,0.35491 0.40261,0.59604 0,0.74004 -26.694987,0.51511 -28.819114,-0.24291 -6.523258,-2.32793 -9.714981,-10.86495 -6.077356,-16.25278 2.613774,-3.87135 9.400017,-5.95564 15.256382,-5.89968 z m 329.769868,0.35538 c 17.69107,0 24.90215,13.79894 11.07735,21.19879 -2.00177,1.0715 -13.40138,1.48 -26.18752,0.94016 -4.15217,-0.17532 -4.1509,-0.17358 -1.77462,-3.31308 2.87719,-3.80128 4.88258,-7.68406 6.74537,-13.0589 2.2052,-6.36282 1.15879,-5.76697 10.13942,-5.76697 z"
       sodipodi:nodetypes="ssssssssssscssssscssssssssscsssssscssssssscsssssssssssccccccsscsssssccccccccsscssssscccccccsssssssssccccsssssssssssssssscssssssccccccccsssssssssssscccsssssssscssscccscsscssssssscsscsssccccccccccsscsssssssssssssssssssssssssssssssssssscssssssssssssssssssssssssssssssssssssscccccccsssssccsssssssssssssscsssssscsssssssssssssssssssscsssssssssscccccccccccssssssscccccccssssssssssssscsccscsssssssssssssssssssssssssssssss" /></g></svg>
