<?xml version="1.0" encoding="UTF-8" standalone="no"?>
<!-- Created with Inkscape (http://www.inkscape.org/) -->

<svg
   width="512"
   height="512"
   viewBox="0 0 512 512"
   version="1.1"
   id="svg1"
   xml:space="preserve"
   inkscape:version="1.4.2 (f4327f4, 2025-05-13)"
   sodipodi:docname="inomeado.svg"
   xmlns:inkscape="http://www.inkscape.org/namespaces/inkscape"
   xmlns:sodipodi="http://sodipodi.sourceforge.net/DTD/sodipodi-0.dtd"
   xmlns="http://www.w3.org/2000/svg"
   xmlns:svg="http://www.w3.org/2000/svg"><sodipodi:namedview
     id="namedview1"
     pagecolor="#505050"
     bordercolor="#eeeeee"
     borderopacity="1"
     inkscape:showpageshadow="0"
     inkscape:pageopacity="0"
     inkscape:pagecheckerboard="0"
     inkscape:deskcolor="#505050"
     inkscape:document-units="px"
     inkscape:zoom="1.1396484"
     inkscape:cx="187.33847"
     inkscape:cy="259.29049"
     inkscape:window-width="3440"
     inkscape:window-height="1369"
     inkscape:window-x="-8"
     inkscape:window-y="-8"
     inkscape:window-maximized="1"
     inkscape:current-layer="layer1" /><defs
     id="defs1" /><g
     inkscape:label="Camada 1"
     inkscape:groupmode="layer"
     id="layer1"><path
       style="fill:#000000;stroke-width:0.311499"
       d="m 187.82485,510.51476 c -8.23744,-1.43191 -10.2206,-6.61123 -4.74881,-12.40233 0.0818,-0.0865 1.37787,0.3652 2.88031,1.00374 4.68417,1.99078 7.38182,1.46111 9.66793,-1.89831 1.67558,-2.46224 1.62132,-2.78514 -1.79103,-10.65659 -1.76361,-4.06827 -4.56497,-10.58735 -6.22525,-14.48684 -1.66028,-3.89954 -3.58288,-8.20769 -4.27246,-9.57374 -0.68957,-1.36604 -1.93808,-4.1563 -2.77445,-6.2006 -0.83639,-2.04427 -1.62009,-3.9505 -1.74155,-4.23604 -0.54509,-1.28135 12.95996,-0.66054 13.55308,0.62299 1.54244,3.33799 7.86769,18.40588 8.32519,19.83211 2.44597,7.62506 3.22773,8.16513 4.96001,3.42648 0.77245,-2.11301 2.93953,-7.48637 4.81574,-11.94081 1.8762,-4.45442 3.75238,-9.08018 4.16928,-10.27946 0.66607,-1.91603 13.4692,-3.74642 13.4692,-1.92562 0,0.14021 -1.10945,2.81648 -2.46545,5.94736 -1.35599,3.13084 -3.21009,7.54845 -4.12021,9.81691 -0.91014,2.26846 -2.21106,5.33934 -2.89095,6.82416 -0.67989,1.48485 -3.14183,7.37218 -5.47099,13.08296 -8.28618,20.3167 -13.5402,25.09466 -25.33959,23.04363 z M 53.896497,495.10805 C 33.82462,492.18382 23.141474,471.57303 32.177592,453.20622 c 8.269452,-16.80851 34.390034,-21.00129 48.08297,-7.7181 2.524421,2.44887 2.747522,1.77071 -2.113196,6.42333 -4.0712,3.89688 -4.0712,3.89688 -6.277808,1.95836 -8.781054,-7.71425 -23.021314,-5.31346 -27.643465,4.6604 -8.17068,17.63096 13.089652,33.88437 27.135641,20.74503 3.807494,-3.56174 12.655896,4.14351 9.110678,7.93364 -5.897225,6.30458 -16.2992,9.39639 -26.575915,7.89917 z m 52.580163,0.008 c -24.789365,-2.43028 -27.454325,-37.66165 -3.27993,-43.36133 16.16694,-3.81172 30.20208,5.87755 30.25528,20.88699 0.0521,14.68456 -11.15899,24.02495 -26.97535,22.47434 z m 7.65395,-11.54524 c 9.18043,-4.16972 8.70756,-18.61767 -0.70079,-21.41165 -8.13105,-2.41468 -14.489942,2.68487 -14.471935,11.60585 0.01495,7.42545 8.434035,12.86649 15.172725,9.8058 z m 199.74745,11.00015 c -8.5743,-2.11813 -12.9004,-8.94821 -10.19881,-16.10201 2.50912,-6.64417 6.85053,-8.39349 20.27103,-8.16796 9.23813,0.15525 9.3337,0.0847 7.961,-5.87262 -1.76777,-7.6721 -14.7915,-9.42552 -23.0758,-3.10678 -1.7046,1.30014 -1.49904,1.37207 -3.0682,-1.07329 -1.67261,-2.60653 -1.16804,-3.34569 3.95746,-5.7974 12.30671,-5.88677 25.50995,-1.90874 28.22187,8.50302 0.60047,2.30533 1.02958,30.84206 0.47224,31.40462 -1.71653,1.73263 -5.64319,-0.40049 -5.64319,-3.06555 0,-2.96011 0,-2.96011 -1.97283,-1.04476 -4.30875,4.1832 -10.78931,5.83839 -16.92477,4.32275 z m 11.92821,-5.9796 c 4.78911,-2.13149 6.54766,-4.951 6.55174,-10.50455 0.004,-4.44864 -17.67292,-4.57196 -21.5551,-0.15043 -6.21863,7.08265 5.04966,15.08509 15.00336,10.65498 z m 122.08597,5.95415 c -25.42075,-5.78653 -21.24567,-43.48004 4.70664,-42.49265 11.46076,0.43603 19.27888,8.76567 19.3068,20.56998 0.007,2.59581 0.007,2.59581 -17.27636,2.59581 -19.4823,0 -18.36565,-0.40233 -15.56196,5.60698 4.23055,9.06758 17.51751,11.48366 24.94511,4.53598 2.06119,-1.92799 2.06119,-1.92799 3.21511,-0.55832 2.87064,3.40736 2.7925,3.02693 0.96156,4.68108 -5.3434,4.82745 -12.96953,6.72906 -20.2969,5.06114 z m 17.37427,-25.0661 c 0,-12.93193 -20.77206,-16.45658 -26.18607,-4.44331 -2.52928,5.6123 -3.52033,5.17178 11.92921,5.30258 7.49862,0.0635 13.77403,0.15948 13.94535,0.21338 0.17133,0.0539 0.31151,-0.42882 0.31151,-1.07265 z m -316.58668,24.94153 c -12.6802,-0.13703 -14.38595,-3.78524 -6.11139,-13.07083 2.29244,-2.57255 6.28825,-7.10704 8.87959,-10.07665 2.59133,-2.96964 5.55776,-6.33383 6.59205,-7.47597 1.88055,-2.07667 1.88055,-2.07667 -8.67192,-2.1875 -10.55247,-0.11086 -10.55247,-0.11086 -10.55247,-5.08784 0,-4.97697 0,-4.97697 18.68993,-4.97697 24.00158,0 24.79319,2.26547 7.47598,21.3949 -10.59715,11.70612 -10.63392,11.41633 1.44858,11.41633 11.03695,0 11.03695,0 10.92033,4.98558 -0.12961,5.54115 0.68841,5.39625 -28.67068,5.07895 z m 87.51439,-0.20041 c -0.10911,-0.28553 -0.14997,-12.85451 -0.0908,-27.93105 0.10758,-27.4119 0.10758,-27.4119 19.31668,-27.5199 19.2091,-0.10796 19.2091,-0.10796 19.2091,2.80349 0,2.91149 0,2.91149 -15.88645,2.91146 -17.5093,-3e-5 -15.92804,-1.78695 -15.71205,17.75547 0.0333,3.01113 0.0333,3.01113 14.15456,3.01113 14.12128,0 14.12128,0 14.12128,2.90734 0,2.90732 0,2.90732 -14.0569,2.90732 -15.65735,0 -14.60099,-1.26678 -14.60099,17.50959 0,5.58534 -4.8548,9.83141 -6.45444,5.64515 z m 48.96833,0.01 c -0.30852,-0.49824 -0.63037,-56.52315 -0.33051,-57.53346 0.25723,-0.86672 0.51504,-0.9345 3.55434,-0.9345 3.277,0 3.277,0 3.17038,29.38471 -0.10662,29.38471 -0.10662,29.38471 -3.15708,29.38471 -1.67774,0 -3.13446,-0.13565 -3.23713,-0.30146 z m 67.75213,0.15846 c -2.4678,-2.46779 0.27474,-42.42848 2.9119,-42.42848 3.11498,0 3.11498,0 3.11498,3.12944 0,3.12944 0,3.12944 1.28681,1.66384 6.18867,-7.0485 20.95755,-6.20434 26.55131,1.51763 1.13323,1.56437 1.13323,1.56437 2.25587,-0.0556 5.9242,-8.54865 23.02705,-8.32646 28.54554,0.37081 5.00095,7.88161 4.81294,35.7377 -0.24121,35.7377 -3.57452,0 -3.57452,0 -3.57452,-13.72972 0,-20.11425 -1.70375,-23.32543 -12.06053,-22.73131 -9.76016,0.55992 -11.76817,4.46774 -11.95927,23.27423 -0.13822,13.60213 -0.13822,13.60213 -2.69966,13.57294 -4.14525,-0.0473 -3.80683,1.16697 -3.81184,-13.67676 -0.007,-19.42672 -1.76806,-23.2586 -10.69199,-23.2586 -10.82032,0 -12.899,3.59648 -13.18518,22.81256 -0.20042,13.45831 -2.29595,17.94757 -6.44221,13.8013 z M 97.677625,403.21574 c -25.274283,-5.44371 -17.16232,-38.0097 9.477915,-38.04972 7.81422,-0.0118 6.85877,0.63177 8.34006,-5.61713 2.68826,-11.3406 10.04801,-18.72051 22.36515,-22.42643 3.49043,-1.05017 13.46846,-4.39163 13.76301,-4.60896 0.0773,-0.057 -0.34524,-0.93241 -0.93887,-1.94536 -12.37905,-21.12325 7.14487,-57.835 27.69117,-52.06904 1.99878,0.56092 3.63415,0.96425 3.63415,0.89628 0,-0.0679 -1.02125,-1.75023 -2.26943,-3.73835 -9.35523,-14.90116 -10.46707,-36.73107 -2.85599,-56.07497 8.11321,-20.62012 17.06921,-25.55533 17.71215,-9.7603 0.22483,5.52292 1.0278,8.14145 3.83754,12.51433 2.56713,3.99528 2.68099,3.96104 2.68099,-0.80612 0,-12.96364 4.95381,-24.86653 15.73507,-37.80781 13.80023,-16.56511 15.89624,-19.40814 18.56164,-25.17705 4.51167,-9.76494 4.91464,-24.36751 0.94998,-34.42486 -3.35457,-8.50968 0.57069,-10.77226 9.53126,-5.49399 32.42616,19.1008 49.20288,53.79264 42.27387,87.41628 -0.58435,2.83562 -0.46132,2.94525 1.73361,1.54465 5.64776,-3.60387 9.82309,-13.02991 9.56449,-21.59241 -0.20701,-6.85518 4.91983,-7.70414 9.57724,-1.58592 20.7005,27.19332 24.07672,64.06625 8.00499,87.42569 -0.71531,1.03968 -1.30057,1.97455 -1.30057,2.0775 0,0.10295 1.62557,-0.37312 3.61238,-1.05794 23.60834,-8.13745 46.50199,34.33962 30.57425,56.72773 -0.78787,1.10744 -1.37293,2.05547 -1.30012,2.10674 0.0728,0.0513 2.18826,0.76518 4.70102,1.58645 24.65495,8.05824 29.7599,12.45509 33.23257,28.62296 0.68298,3.17977 0.68298,3.17977 8.22978,3.35999 26.06036,0.62235 33.5652,30.70364 9.44425,37.85493 -2.94986,0.87456 -302.514,0.97505 -306.563555,0.10283 z m 55.887405,-9.81948 c 15.51986,-6.65259 15.31246,-32.04975 -0.34902,-42.73894 -13.57266,-9.26355 -30.32104,0.3462 -30.33583,17.40587 -0.015,17.32326 16.8632,31.25772 30.68485,25.33307 z m -11.70737,-6.38547 c -18.24769,-5.96739 -15.04205,-38.06635 3.25415,-32.58466 3.87845,1.16201 5.59944,3.93439 2.02106,3.25576 -13.18691,-2.50084 -19.18943,10.52911 -10.09074,21.90443 7.7446,9.68239 21.74752,1.19727 17.30298,-10.4848 -1.08172,-2.84321 -1.13306,-3.18663 -0.53319,-3.56647 2.6224,-1.66057 4.56129,1.94768 4.61604,8.5904 0.0753,9.13746 -8.24538,15.60776 -16.5703,12.88534 z m 221.57102,5.9529 c 8.59361,-4.19446 15.31489,-16.70013 14.46201,-26.90812 -2.01043,-24.06264 -25.26846,-25.01529 -33.19819,-1.35978 -6.28716,18.7554 4.59321,35.17096 18.73618,28.2679 z m -239.1496,0.88468 c 0,-0.20939 -0.15717,-0.44302 -0.34927,-0.51916 -1.55552,-0.61658 -5.9227,-8.57932 -8.39023,-15.29806 -2.04047,-5.5559 -17.528144,-4.48397 -21.563178,1.49244 -3.158786,4.67858 -0.386452,12.09145 5.278093,14.11293 1.844505,0.65824 25.024585,0.85447 25.024585,0.21185 z m 196.6424,0.10008 c 1.58393,-0.26154 1.42432,-0.34655 -4.36098,-2.32253 -22.75126,-7.7707 -65.51471,-21.9996 -66.06615,-21.98252 -0.36772,0.0114 -4.47951,1.36416 -9.13729,3.00616 -4.65779,1.64198 -15.01018,5.27826 -23.00532,8.08061 -7.99514,2.80235 -18.6484,6.58729 -23.67392,8.41098 -5.02551,1.8237 -9.83556,3.54128 -10.689,3.81684 -0.85344,0.27557 -1.6588,0.67431 -1.78967,0.88607 -0.27095,0.4384 136.0783,0.54101 138.72233,0.10439 z m 82.28125,-0.83145 c 12.00474,-6.42574 5.74367,-18.4085 -9.61857,-18.4085 -7.79843,0 -6.8908,-0.51629 -8.80571,5.00894 -1.61758,4.6673 -3.35857,8.03771 -5.85701,11.33859 -2.06347,2.72622 -2.06347,2.72622 1.54211,2.87846 11.10299,0.46878 21.00092,0.11296 22.73918,-0.81749 z m -67.10441,-4.81591 c 0,-0.0623 -0.44625,-1.88461 -0.99164,-4.04949 -0.5454,-2.16486 -1.12014,-4.89196 -1.27721,-6.06023 -0.26906,-2.00119 -0.3739,-2.15066 -1.81186,-2.58324 -0.83946,-0.25253 -4.23631,-1.69998 -7.54859,-3.21656 -11.49345,-5.26247 -16.67739,-7.10835 -18.80634,-6.69651 -0.71423,0.13817 -0.64122,0.19253 0.32407,0.24127 3.2107,0.16214 2.30797,0.86847 -1.11765,0.8745 -3.99825,0.007 -5.15137,-0.56291 -2.09692,-1.03645 1.49328,-0.23151 1.76948,-0.37768 1.14393,-0.60544 -1.4381,-0.52358 6.84802,-0.8792 10.4962,-0.45046 2.35252,0.27647 4.45537,0.85569 6.64531,1.8304 5.82973,2.59476 12.58891,5.35053 12.74374,5.1957 0.18388,-0.18388 1.16492,-6.79696 1.21975,-8.22216 0.0339,-0.88228 -0.63135,-1.36543 -5.24529,-3.80919 -2.90629,-1.53931 -7.15131,-3.93308 -9.43338,-5.31951 -10.86809,-6.60272 -10.73951,-6.5729 -17.57369,-4.07589 -6.85947,2.50624 -7.37547,2.79182 -5.05402,2.79713 0.89469,0.002 3.49571,0.67019 5.78004,1.48479 2.28432,0.81458 5.62131,1.95216 7.41553,2.52794 4.59502,1.47459 3.79021,2.01185 -2.97309,1.9847 -5.38492,-0.0216 -6.99799,-0.31866 -12.33375,-2.27129 -4.50794,-1.64969 -6.44325,-1.58163 -12.50886,0.43987 -4.98784,1.66231 -5.26597,1.80994 -4.10441,2.17853 0.6853,0.21746 3.11499,1.10994 5.39931,1.98329 2.28433,0.87336 5.36817,1.8951 6.85298,2.27054 3.31304,0.83773 8.04816,3.26725 9.18525,4.71282 1.12345,1.42824 0.0239,2.06139 -2.41762,1.3921 -4.63197,-1.26979 -16.64685,-5.26217 -20.23077,-6.72243 -2.265,-0.92287 -4.46803,-1.67794 -4.89562,-1.67794 -0.96362,0 -8.63781,2.5853 -8.63781,2.90993 0,0.24217 70.39681,23.97242 71.33324,24.0459 0.28554,0.0224 0.51917,-0.0103 0.51917,-0.0726 z m -156.48894,-3.24721 c 3.94742,-1.39145 11.84963,-4.27174 17.56044,-6.40064 5.71081,-2.1289 15.42957,-5.64764 21.59725,-7.81942 6.16768,-2.17177 12.24191,-4.33338 13.49828,-4.80357 1.25639,-0.47019 8.07821,-2.92408 15.15962,-5.45309 25.90325,-9.25093 23.8097,-8.17353 33.43421,-17.2062 15.02225,-14.0985 23.76522,-18.74163 43.40794,-23.05268 16.00416,-3.51249 21.69107,-5.56211 21.89161,-7.88998 0.33586,-3.89868 -1.0616,-12.89486 -2.00308,-12.89486 -0.1004,0 -0.8797,0.43703 -1.73178,0.97118 -11.69601,7.33189 -23.29382,11.89834 -41.83643,16.47243 -11.97082,2.95298 -15.54154,4.23839 -23.96223,8.62619 -5.39948,2.81353 -6.23728,3.13303 -7.2683,2.7719 -6.3792,-2.23444 10.08711,-10.60008 31.4382,-15.97204 16.33244,-4.10926 27.26211,-8.37647 39.35269,-15.36423 2.63361,-1.52211 2.67831,-1.94446 0.54947,-5.19253 -3.44932,-5.26283 -4.13482,-5.56135 -7.14793,-3.11279 -3.81137,3.09724 -10.26708,6.81496 -15.08243,8.6857 -4.34049,1.68624 -6.1347,2.19416 -17.87947,5.06137 -15.34132,3.74523 -20.44282,6.30983 -35.94704,18.07113 -14.31709,10.86073 -20.34129,12.78826 -43.38133,13.88048 -20.12055,0.95381 -44.30886,7.76397 -55.36465,15.58778 -0.0691,0.0489 0.61505,1.2346 1.52018,2.635 0.90512,1.40041 2.36335,3.94415 3.24049,5.65275 1.9064,3.71348 1.31388,3.64398 5.8232,0.68301 14.70094,-9.65316 22.33479,-12.34835 41.96187,-14.81496 9.9755,-1.25366 12.60303,-1.69184 17.6352,-2.94093 4.40996,-1.09465 5.20349,-1.01381 5.60116,0.57063 0.41119,1.6383 -0.88449,2.3562 -6.8145,3.77571 -4.86016,1.1634 -7.24962,1.541 -18.79461,2.97002 -14.08085,1.7429 -24.56992,5.45148 -35.92619,12.70232 -5.79273,3.69857 -6.93157,4.64384 -6.66947,5.53583 0.10518,0.35794 0.3921,2.50905 0.6376,4.78025 0.2455,2.27119 0.51043,4.19351 0.58872,4.27181 0.47383,0.47382 8.62726,-3.74224 13.84134,-7.1572 10.72748,-7.026 15.24727,-8.77859 29.54533,-11.45648 21.9067,-4.10291 34.61503,-8.78011 49.69149,-18.28856 9.4212,-5.94179 11.00629,-6.41415 11.00629,-3.27993 0,5.03136 -33.14424,20.3244 -51.70881,23.85889 -2.96962,0.56538 -7.92246,1.51048 -11.0063,2.10023 -11.0274,2.10884 -15.72437,4.0677 -26.37356,10.99909 -6.22908,4.0544 -9.23676,5.61222 -13.46369,6.97348 -2.42671,0.7815 -2.31048,0.59256 -4.38447,7.12714 -0.38014,1.19772 -0.31716,1.18422 7.76369,-1.66423 z m 160.3106,-32.47444 c 1.05071,-2.42534 2.17841,-1.6778 -8.59799,-5.69955 -9.13729,-3.41005 -9.13729,-3.41005 -12.45995,-2.26566 -4.89931,1.68742 -4.84522,1.52761 -1.19454,3.52933 1.79916,0.9865 4.95329,2.82839 7.00918,4.09308 12.16088,7.4808 12.15105,7.48058 15.2433,0.3428 z m -53.20526,-6.29434 c 11.86667,-4.33616 33.82288,-12.21951 42.32295,-15.19601 12.94584,-4.53328 13.04555,-4.5941 15.17876,-9.25817 1.36555,-2.98567 1.33536,-3.01374 -1.92816,-1.79217 -4.04914,1.51564 -11.03619,3.39241 -18.84894,5.06299 -17.09697,3.65576 -25.84235,8.38991 -41.10572,22.25185 -0.72586,0.65922 0.4132,0.38141 4.38111,-1.06849 z m -118.7378,-1.93994 c 17.54468,-8.79487 31.2117,-12.63009 48.7135,-13.66987 20.62654,-1.22543 23.4995,-1.62043 29.98938,-4.12319 3.79882,-1.46498 8.70048,-4.29959 12.62242,-7.2995 9.98528,-7.63778 12.177,-9.23452 15.52295,-11.30893 7.25534,-4.49816 15.22041,-7.6471 24.93161,-9.8566 15.24058,-3.46754 21.1677,-5.79803 30.01165,-11.80037 3.84297,-2.60821 3.84267,-2.47134 0.01,-4.43799 -3.69982,-1.89843 -3.97487,-1.81889 -45.90707,13.27578 -20.04505,7.21577 -20.07926,7.23288 -24.16633,12.08722 -9.88276,11.7381 -15.95793,15.63037 -27.88782,17.86726 -4.35829,0.8172 -5.99932,0.65162 -6.41146,-0.64692 -0.54451,-1.71561 0.74339,-2.76286 4.03936,-3.28461 11.1057,-1.75799 18.1379,-5.62603 24.7678,-13.62345 2.22577,-2.68488 2.47942,-2.70029 -5.77049,0.35067 -3.75758,1.38962 -12.7193,4.57636 -19.91493,7.08165 -13.09847,4.56046 -31.14731,10.94043 -52.9548,18.71867 -6.3961,2.28134 -13.59173,4.80833 -15.99026,5.61552 -5.4935,1.84874 -5.47868,1.83129 -2.83125,3.33552 1.21453,0.69008 3.04929,1.92021 4.07724,2.7336 1.02795,0.81341 1.9186,1.48852 1.97922,1.50028 0.0607,0.0118 2.38686,-1.11988 5.16942,-2.51474 z m -0.29566,-17.59032 c 2.28433,-0.8466 8.2651,-2.94554 13.29062,-4.66432 5.02551,-1.71878 9.37954,-3.25755 9.67561,-3.4195 0.30173,-0.16504 -1.43734,-0.78164 -3.95698,-1.40297 -13.49886,-3.32879 -20.25316,-5.56198 -26.81163,-8.86478 -3.37438,-1.69931 -3.04649,-1.83842 -3.59201,1.52398 -1.08476,6.68606 0.14392,14.02576 3.1064,18.55659 0.6918,1.05802 0.86608,1.02166 8.28799,-1.729 z m 38.41819,-13.75545 c 3.31227,-1.22008 6.53629,-2.33962 7.16447,-2.48786 1.30051,-0.30688 1.48577,-0.81085 0.41534,-1.12985 -14.54331,-4.33402 -20.64707,-7.78681 -24.5665,-13.89686 -3.48768,-5.43699 -10.23236,-8.89038 -16.16715,-8.27786 -2.50888,0.25894 -6.78917,2.7471 -7.04929,4.09779 -0.30539,1.58578 11.41523,8.49765 20.24236,11.93729 2.38489,0.92931 4.48464,1.92351 4.66612,2.20934 4.00122,6.30166 -14.17399,0.002 -25.08655,-8.69532 -2.79366,-2.22653 -2.79366,-2.22653 -4.08807,-0.45141 -1.54218,2.11489 -3.29389,5.45717 -3.29389,6.28475 0,2.30336 36.2467,13.73558 40.70252,12.83759 0.57108,-0.1151 3.74837,-1.20751 7.06064,-2.4276 z m 19.2091,-6.67251 c 5.55694,-1.89541 5.58639,-1.78594 -1.03833,-3.8587 -3.02673,-0.94701 -9.24113,-2.9521 -13.80979,-4.45575 -17.03767,-5.60753 -19.13241,-6.01127 -17.28924,-3.33231 2.52561,3.67085 3.90316,4.45537 14.58959,8.30879 3.5407,1.27674 7.74594,2.87579 9.34496,3.55343 3.65822,1.55031 2.97312,1.56831 8.20281,-0.21546 z m 25.27961,-8.88038 c 3.51419,-1.18565 9.56673,-3.32704 13.45008,-4.75865 3.88335,-1.4316 8.72219,-3.14032 10.75296,-3.79715 4.27304,-1.38204 4.31091,-1.42411 6.30626,-7.0069 2.65311,-7.42308 3.47483,-18.59381 1.81034,-24.61037 -0.61154,-2.2105 -0.58323,-2.21839 -3.10471,0.86518 -11.72202,14.33515 -28.50183,5.36931 -25.90995,-13.8443 1.17298,-8.69535 0.29304,-17.47121 -2.32522,-23.19025 -1.2009,-2.62312 -1.45313,-2.51156 -2.41101,1.06639 -2.0081,7.50077 -7.74506,16.99214 -15.5681,25.75626 -14.66507,16.4292 -17.40577,32.98863 -7.41604,44.80797 1.49551,1.76941 15.93206,7.5363 17.56242,7.01557 0.25495,-0.0814 3.33878,-1.11812 6.85297,-2.30375 z m -35.76674,-7.628 c 0,-0.0892 -0.36969,-0.97705 -0.82154,-1.97283 -0.84139,-1.85423 -1.16331,-1.67718 -0.43474,0.2391 0.45702,1.20205 -0.15985,1.45551 -1.32933,0.54621 -5.52604,-4.29665 -5.08856,-25.20427 0.78,-37.27603 5.96065,-12.26122 6.61624,-17.58581 3.6945,-30.00589 -1.19397,-5.07546 -2.2881,-12.22077 -2.3457,-15.31858 -0.0415,-2.23103 -0.0415,-2.23103 -0.86625,0.26097 -1.0939,3.30511 -0.82688,8.17745 0.92184,16.82093 1.1415,5.64223 1.28103,7.05345 1.12925,11.42163 -0.19045,5.48117 -0.13329,5.29397 -5.01565,16.42511 -5.65808,12.89966 -6.26512,29.3304 -1.35709,36.73201 0.54996,0.82937 5.64471,2.74947 5.64471,2.12737 z m -12.25255,-8.19871 c -1.65627,-6.616 -3.81758,-12.9849 -6.11261,-18.01256 -6.02733,-13.20386 -7.05202,-21.42471 -4.05893,-32.56373 0.33185,-1.23505 0.23116,-1.6027 -0.79628,-2.90732 -0.6469,-0.82141 -1.76633,-2.61487 -2.48762,-3.98547 -0.72128,-1.3706 -1.23021,-2.11819 -1.13094,-1.66133 0.0993,0.45687 0.29564,1.3477 0.43638,1.97962 0.22809,1.02418 -0.13847,3.48964 -2.44456,16.44174 -2.45752,13.80262 -0.0675,30.28993 5.3371,36.81777 1.0316,1.24601 1.0316,1.24601 0.0562,-2.07665 -1.20572,-4.1072 -3.81346,-16.16458 -4.42817,-20.47449 -1.13899,-7.98585 1.91816,-30.71099 3.67107,-27.28867 0.57076,1.1143 0.74392,1.9457 0.5259,2.52496 -0.17877,0.475 -0.83505,3.35751 -1.45838,6.40557 -2.05893,10.06798 -1.49934,13.55122 4.50369,28.03401 3.27423,7.89933 4.35151,11.15907 5.51876,16.69937 0.69178,3.28351 0.77294,3.43076 2.20874,4.00753 1.93928,0.77902 1.89995,1.01396 0.65965,-3.94035 z m 89.48116,1.10466 c 0.8731,-0.4515 1.52089,-1.42595 2.48089,-3.73196 9.44571,-22.68966 6.65179,-37.67042 -8.91902,-47.8229 -12.29925,-8.01938 -14.45614,-17.17206 -7.63015,-32.37833 2.54887,-5.67811 2.60294,-5.87408 2.7875,-10.10247 0.1932,-4.42624 -0.37096,-5.62084 -0.95377,-2.0196 -0.15692,0.96964 -1.04108,4.09923 -1.9648,6.95463 -0.92371,2.85541 -2.1035,6.7803 -2.62174,8.72197 -0.51826,1.94167 -1.42108,4.83861 -2.00628,6.43764 -3.54088,9.67525 -0.0252,17.32532 11.37916,24.76118 15.2867,9.96717 16.67493,22.35645 5.52094,49.27172 -0.28702,0.69258 0.4811,0.65596 1.92727,-0.0919 z m -20.88736,-30.1502 c 1.12621,-5.30679 0.56283,-11.87803 -1.72471,-20.1169 -3.66541,-13.20146 -3.32907,-17.56693 2.66665,-34.61152 4.93674,-14.03405 5.39186,-30.85982 1.06067,-39.21131 -3.07331,-5.926 -3.80228,-6.6182 -2.25798,-2.14408 4.84835,14.04655 4.27769,27.24842 -1.91028,44.19325 -5.1779,14.17894 -5.50005,19.18826 -2.07011,32.18899 2.21212,8.38477 2.6005,14.06869 1.35409,19.81679 -0.69994,3.22788 -0.63922,3.37483 1.10273,2.66905 1.12078,-0.45411 1.36581,-0.83761 1.77894,-2.78427 z m -17.09239,-55.5742 c 8.78544,-4.01295 11.57691,-20.42222 5.17206,-30.40331 -3.41367,-5.31974 -6.74771,-3.78044 -11.17583,5.1598 -7.4076,14.95577 -3.8864,29.76107 6.00377,25.24351 z m -5.5934,-2.88341 c -4.1569,-4.15691 -1.17616,-20.7623 4.87856,-27.17788 2.51247,-2.66223 5.4515,0.998 7.06433,8.79782 2.24173,10.84123 -6.31419,24.00875 -11.94289,18.38006 z M 71.197664,351.85595 c -0.754924,-0.46027 -2.063219,-1.97652 -2.907322,-3.36947 -0.844093,-1.39293 -2.571809,-4.14621 -3.83937,-6.1184 C 3.1208192,246.94479 31.5002,114.54648 127.4601,48.411688 219.17448,-14.797129 344.12892,2.0076999 416.89018,87.336452 c 60.8739,71.388188 69.22981,175.854588 20.36145,254.560828 -1.63108,2.62698 -3.4673,5.64439 -4.08049,6.70537 -2.26557,3.92004 -5.72863,5.28929 -8.28726,3.27667 -2.67829,-2.10674 -2.56017,-5.35561 0.35308,-9.71087 C 485.02952,252.77951 463.19405,128.63711 376.03406,62.432492 299.31502,4.1585839 187.9159,6.8235999 117.37457,68.620448 c -2.48441,2.176433 -5.50983,4.785258 -6.72316,5.797374 -3.52316,2.938917 -17.527213,17.787948 -21.008521,22.276128 -1.750481,2.25676 -4.302927,5.50496 -5.672096,7.2182 -7.041263,8.81073 -16.096769,23.93392 -22.256335,37.16926 -29.671686,63.75698 -25.435208,136.59319 11.434136,196.58277 5.489336,8.93162 5.659414,9.32812 4.938973,11.51412 -1.009714,3.06378 -4.214037,4.30909 -6.889903,2.67765 z M 121.66291,304.88167 C 117.90809,301.09995 110.63167,285.45717 107.10034,273.5752 69.4167,146.77949 198.24115,35.640063 316.2729,93.11785 c 74.71967,36.38616 106.48546,129.69073 68.96591,202.57119 -5.50563,10.69451 -7.91047,12.62735 -11.72127,9.42077 -2.82467,-2.3768 -2.69847,-3.46637 1.30797,-11.29252 19.79124,-38.66011 20.54266,-81.46935 5.85161,-118.08898 C 367.61359,143.16552 342.33959,115.4969 307.38445,99.9917 186.72731,46.47132 66.372036,174.4954 125.7987,293.14775 c 3.81512,7.61735 3.9588,8.00254 3.50164,9.38773 -1.18123,3.57917 -5.19037,4.81076 -7.63743,2.34619 z m -37.463352,-2.19275 c -2.010111,-0.88729 -2.587677,-1.85645 -5.174625,-8.68319 C 16.052352,127.82648 203.72851,-22.081848 352.08859,75.893252 c 70.63832,46.648648 100.08819,136.048198 71.1827,216.085868 -3.89482,10.78455 -5.42137,12.48948 -9.61415,10.73763 -3.60485,-1.50621 -3.80075,-4.22853 -0.84177,-11.69761 C 463.8776,162.12754 343.90263,26.274744 208.91951,60.139125 108.02373,85.451722 50.844291,194.43446 88.179532,290.26686 c 2.66454,6.83936 2.896174,8.33459 1.616362,10.43373 -1.29497,2.124 -3.507839,2.91021 -5.596336,1.98833 z"
       id="path1"
       sodipodi:nodetypes="ssssssssssssssssssssssssssssssssssssssssssssssssssscsssscsssssssssssssssssssssssssssssssssssssssssssssssssssscssssssssssssssssssssssssssssssssssssssssssssssssssssssssssssssssssssssssssssssssssssssssssssssssssssssssssssssssssssssssssssssssssssssssssssssssssssssssssssssssssscssssssssssssssssssssccssssssssssssssscsssssssssssssssssssssssssssssssssssssssssssssssssssssssssssssssssssssssssssssssssssssssssssssssssssssssssscsssssssssssssssssss" /></g></svg>
